<?xml version="1.0" encoding="UTF-8" standalone="no"?>
<!-- Created with Inkscape (http://www.inkscape.org/) -->

<svg
   xmlns:dc="http://purl.org/dc/elements/1.1/"
   xmlns:cc="http://creativecommons.org/ns#"
   xmlns:rdf="http://www.w3.org/1999/02/22-rdf-syntax-ns#"
   xmlns:svg="http://www.w3.org/2000/svg"
   xmlns="http://www.w3.org/2000/svg"
   xmlns:sodipodi="http://sodipodi.sourceforge.net/DTD/sodipodi-0.dtd"
   xmlns:inkscape="http://www.inkscape.org/namespaces/inkscape"
   width="628.76593"
   height="218.04021"
   id="svg2"
   version="1.1"
   inkscape:version="0.92.1 r15371"
   sodipodi:docname="soniabrand.svg"
   viewBox="0 0 589.4681 204.4127"
   inkscape:export-filename="C:\Users\raftol\Desktop\sonialogo.png"
   inkscape:export-xdpi="90"
   inkscape:export-ydpi="90">
  <defs
     id="defs4" />
  <sodipodi:namedview
     id="base"
     pagecolor="#ffffff"
     bordercolor="#666666"
     borderopacity="1.0"
     inkscape:pageopacity="0.0"
     inkscape:pageshadow="2"
     inkscape:zoom="1"
     inkscape:cx="241.69665"
     inkscape:cy="64.608981"
     inkscape:document-units="px"
     inkscape:current-layer="g4282"
     showgrid="false"
     inkscape:window-width="1600"
     inkscape:window-height="837"
     inkscape:window-x="-8"
     inkscape:window-y="-8"
     inkscape:window-maximized="1"
     fit-margin-top="0"
     fit-margin-left="0"
     fit-margin-right="0"
     fit-margin-bottom="0"
     inkscape:snap-global="false" />
  <metadata
     id="metadata7">
    <rdf:RDF>
      <cc:Work
         rdf:about="">
        <dc:format>image/svg+xml</dc:format>
        <dc:type
           rdf:resource="http://purl.org/dc/dcmitype/StillImage" />
        <dc:title />
      </cc:Work>
    </rdf:RDF>
  </metadata>
  <g
     inkscape:label="Capa 1"
     inkscape:groupmode="layer"
     id="layer1"
     transform="translate(748.46138,-984.58344)">
    <flowRoot
       xml:space="preserve"
       id="flowRoot3264"
       style="font-style:normal;font-variant:normal;font-weight:normal;font-stretch:normal;line-height:0.01%;font-family:'32768 NO';-inkscape-font-specification:'32768 NO';letter-spacing:0px;word-spacing:0px;fill:#000000;fill-opacity:1;stroke:none"><flowRegion
         id="flowRegion3266"><rect
           id="rect3268"
           width="1302.8572"
           height="1277.1428"
           x="-142.85715"
           y="-124.78068" /></flowRegion><flowPara
         id="flowPara3270"
         style="font-size:40px;line-height:1.21000004"> </flowPara></flowRoot>    <g
       id="g4132"
       transform="matrix(0.96576064,0,0,0.96576064,13.910056,16.79917)">
      <g
         transform="matrix(0.69325153,0,0,0.69325153,158.79633,165.72021)"
         id="g3272">
        <g
           id="g3051"
           transform="matrix(1.5042517,0,0,1.5042517,-149.3641,170.92916)">
          <g
             id="g4079"
             transform="matrix(0.54993978,0,0,0.54993978,-1372.2541,110.64603)">
            <g
               id="g4322"
               transform="translate(-12.036848,-228.7001)">
              <g
                 id="g4282">
                <path
                   style="fill:#00d4aa;stroke:#00d4aa;stroke-width:1.69268179px;stroke-linecap:butt;stroke-linejoin:miter;stroke-opacity:1;fill-opacity:1"
                   d="m 1312.8213,1513.4999 c 0,0 16.5275,23.53 27.0916,33.1085 9.0582,8.2131 19.6998,14.655 30.5212,20.3474 8.5567,4.5011 17.5394,8.4732 26.9304,10.7722 9.7364,2.3836 19.9281,3.7604 29.9226,2.9923 11.9156,-0.9158 23.4592,-4.9478 34.7103,-8.9768 11.5954,-4.1523 23.4185,-8.5038 33.5134,-15.5598 6.9368,-4.8486 13.2322,-10.9295 17.9536,-17.9536 6.3892,-9.5054 13.3233,-31.6711 13.3233,-31.6711 l 3.0871,45.9741 c 0,0 -14.0272,37.2008 -26.5841,52.1253 -7.7057,9.1586 -18.1367,15.965 -28.7258,21.5443 -12.1108,6.3811 -25.35,11.2162 -38.8994,13.166 -14.6234,2.1043 -29.9685,1.8502 -44.2856,-1.7954 -15.7348,-4.0066 -30.1774,-12.5375 -43.6871,-21.5443 -12.7788,-8.5194 -34.7037,-30.3075 -34.7037,-30.3075 -2.6492,-25.4702 2.4814,-46.7514 -0.1678,-72.2216 z"
                   id="path4522"
                   inkscape:connector-curvature="0"
                   sodipodi:nodetypes="caaaaaaaccaaaaacc" />
                <path
                   style="opacity:1;fill:#00d4aa;fill-opacity:1;fill-rule:evenodd;stroke:#00d4aa;stroke-width:1.69268179;stroke-miterlimit:4;stroke-dasharray:none;stroke-opacity:1;paint-order:markers fill stroke"
                   d="m 1523.8563,1495.9628 c -3.7052,14.9809 -9.3583,31.7997 -21.1971,44.5252 -18.7563,20.1612 -51.2194,28.57 -85.0284,32.0768 -15.2006,1.5767 -28.6758,-5.73 -39.9565,-11.6665 -9.8694,-5.1939 -18.059,-8.6371 -24.2546,-13.4553 -16.1449,-12.5558 -22.7245,-22.4376 -39.1658,-45.6893 11.9691,-39.4624 31.2611,-61.6091 81.534,-79.395 5.8155,-2.0575 16.6067,2.3882 23.0398,2.3882 7.4037,0 13.3566,-3.803 20.4103,-3.8003 18.7405,0.01 40.6234,7.0643 55.3779,18.0503 19.5075,14.5251 29.2404,35.9182 29.2404,56.9659 z"
                   id="path4519"
                   inkscape:connector-curvature="0"
                   sodipodi:nodetypes="csssscssssc" />
                <flowRoot
                   xml:space="preserve"
                   id="flowRoot3237"
                   style="font-style:normal;font-variant:normal;font-weight:normal;font-stretch:normal;line-height:0.01%;font-family:'32768 NO';-inkscape-font-specification:'32768 NO';letter-spacing:0px;word-spacing:0px;fill:#000000;fill-opacity:1;stroke:none"
                   transform="matrix(0.8028956,0,0,0.8028956,1635.4327,718.54529)"><flowRegion
                     id="flowRegion3239"><rect
                       id="rect3241"
                       width="968.57141"
                       height="262.85715"
                       x="42.857143"
                       y="663.79077" /></flowRegion><flowPara
                     id="flowPara3243"
                     style="font-size:40px;line-height:1.21000004;fill:#d7f4d7"> </flowPara></flowRoot>                <path
                   style="fill:#999999;stroke:#808080;stroke-width:5.77513456;stroke-linecap:butt;stroke-linejoin:miter;stroke-miterlimit:4;stroke-dasharray:none;stroke-opacity:1"
                   d="m 1409.9917,1441.9666 h 38.501 l 11.2294,117.1069 -43.3136,4.8126 z"
                   id="path4212"
                   inkscape:connector-curvature="0" />
                <path
                   style="fill:#999999;stroke:#808080;stroke-width:5.77513456;stroke-linecap:round;stroke-linejoin:miter;stroke-miterlimit:4;stroke-dasharray:none;stroke-opacity:1"
                   d="m 1400.3665,1446.7792 5.9502,-3.2668 11.6961,120.3737 -8.5461,1.05 z"
                   id="path4214"
                   inkscape:connector-curvature="0"
                   sodipodi:nodetypes="ccccc" />
                <g
                   transform="matrix(0.31985865,0,0,0.31985865,523.3584,1011.7627)"
                   id="g4220"
                   style="fill:#999999;stroke:#333333;stroke-width:18.05527115;stroke-miterlimit:4;stroke-dasharray:none">
                  <path
                     inkscape:connector-curvature="0"
                     id="path4218"
                     d="m 2857.9537,1460.4286 c -20.5415,-2.5988 -43.4914,17.1598 -48.3335,35.3522 -3.4706,13.0397 6.1155,28.8451 18.1148,36.7632 11.0325,7.2801 28.6493,9.8061 40.7583,4.0846 13.152,-6.2141 22.0196,-21.9824 21.1614,-35.352 -1.0649,-16.5927 -13.4531,-38.5393 -31.701,-40.848 z"
                     style="fill:#999999;stroke:#333333;stroke-width:15.48368263;stroke-linecap:butt;stroke-linejoin:miter;stroke-miterlimit:4;stroke-dasharray:none;stroke-opacity:1"
                     sodipodi:nodetypes="aaaaaa" />
                </g>
                <path
                   style="fill:none;stroke:#333333;stroke-width:4.95258999;stroke-linecap:butt;stroke-linejoin:miter;stroke-miterlimit:4;stroke-dasharray:none;stroke-opacity:1"
                   d="m 1428.387,1490.9382 13.748,-1.7104"
                   id="path4223"
                   inkscape:connector-curvature="0" />
                <path
                   style="fill:none;stroke:#333333;stroke-width:4.95258999;stroke-linecap:butt;stroke-linejoin:miter;stroke-miterlimit:4;stroke-dasharray:none;stroke-opacity:1"
                   d="m 1435.498,1483.669 0.474,12.828"
                   id="path4225"
                   inkscape:connector-curvature="0" />
                <path
                   style="fill:#008066;stroke:#008066;stroke-width:5.77513456;stroke-linecap:butt;stroke-linejoin:miter;stroke-miterlimit:4;stroke-dasharray:none;stroke-opacity:1"
                   d="m 1441.9024,1589.9073 c -11.1507,-0.5766 -26.3999,0.015 -32.0841,9.6253 -3.8977,6.5898 -0.052,16.5467 4.8126,22.4588 5.1751,6.2895 14.3246,10.0413 22.4589,9.6252 10.9965,-0.5624 24.6008,-5.8949 28.8756,-16.042 2.3671,-5.6187 -0.7872,-13.067 -4.8126,-17.6462 -4.5896,-5.221 -12.3081,-7.6621 -19.2504,-8.0211 z"
                   id="path4208"
                   inkscape:connector-curvature="0"
                   sodipodi:nodetypes="aaaaaaa" />
                <path
                   sodipodi:nodetypes="aaaccaaaaaaaaaaaasaaa"
                   inkscape:connector-curvature="0"
                   id="path3999"
                   d="m 1110.7248,1645.5213 c -19.5733,-3.5153 -44.5599,-14.5141 -49.111,-33.8728 -5.5425,-23.5764 17.1983,-47.3404 35.1656,-63.5804 5.0349,-4.5508 12.2393,-10.0287 18.7186,-8.0094 16.6734,18.8038 39.774,49.698 64.4396,45.792 28.2851,-5.6599 48.2657,-38.9357 54.7037,-67.0539 4.5713,-19.965 0.374,-45.4342 -14.2558,-59.7683 -22.4359,-21.9826 -60.8658,-16.5437 -92.0867,-19.9871 -21.2209,-2.3405 -46.0723,11.1373 -64.0474,-0.3821 -19.2719,-12.3504 -33.0713,-39.6826 -29.0581,-62.2179 7.4983,-42.1063 48.6081,-85.4035 91.0881,-90.3616 20.7041,-2.4165 41.181,15.7046 53.344,32.6327 7.328,10.1988 16.4218,27.0861 8.3797,36.7319 -9.6498,11.5741 -30.3863,0.9821 -45.1644,-1.9644 -6.3778,-1.2716 -11.9833,-8.1283 -18.3261,-6.6923 -12.0761,2.734 -26.2161,14.1478 -26.001,26.5279 0.2184,12.5712 16.0761,20.3831 27.3227,26.0038 11.7881,5.8914 38.9899,6.543 38.9899,6.543 53.4461,1.1628 117.0587,37.4409 133.9769,88.152 12.8017,38.3721 -11.073,87.0187 -41.0218,114.21 -37.4411,33.9937 -97.282,46.2363 -147.0565,37.2969 z"
                   style="fill:#00ccff;fill-opacity:1;stroke:none;stroke-width:0.44468766" />
                <path
                   inkscape:connector-curvature="0"
                   id="path4019"
                   d="m 1838.1698,1589.2634 c -1.0393,-11.8919 -2.7543,-33.2709 -3.8111,-47.5087 l -1.9214,-25.8868 18.9049,-7.673 c 10.3977,-4.2201 19.9963,-6.5801 21.3302,-5.2444 1.334,1.3356 2.4878,25.226 2.5642,53.0897 0.119,43.4098 -0.6102,50.6665 -5.0947,50.6985 -2.8785,0.021 -10.8246,0.9619 -17.658,2.0919 l -12.4243,2.0546 z"
                   style="fill:#ff0066;fill-opacity:1;stroke:none;stroke-width:0.44468766" />
                <path
                   sodipodi:nodetypes="aaaccaaaaaaaaaasaaaaaaaaa"
                   inkscape:connector-curvature="0"
                   id="path4031"
                   d="m 1906.8986,1580.6438 c 3.6598,-48.3241 50.4979,-95.481 97.3102,-108.0197 12.2992,-3.2944 26.8939,3.2522 36.3296,11.8015 3.2487,2.9435 5.2736,12.048 5.2736,12.048 5.1694,-17.7564 -12.6812,-41.4042 -24.5428,-51.5113 -6.9243,-5.6126 -16.9668,-5.4856 -25.3291,-8.5709 -5.951,-2.1956 -17.2513,-0.74 -17.6675,-7.0694 -1.1582,-17.6136 28.8023,-29.1176 46.1659,-25.9413 28.1613,5.1515 42.7841,40.026 55.1317,65.855 8.6374,18.0679 9.295,39.0526 11.6338,58.9419 1.9849,16.8793 0.8496,33.9909 2,50.9475 0.7588,11.186 9.7609,24.365 3.232,33.4796 -4.4072,6.1526 -14.5494,4.6822 -22.0994,5.2064 -7.7315,0.5369 -16.2536,1.3824 -23.1506,-2.1526 -3.749,-1.9216 -6.0794,-5.9515 -8.2976,-9.5329 -3.0095,-4.8591 -5.2045,-15.8407 -6.5639,-15.8407 -1.3593,0 -7.993,9.5441 -12.9363,13.2344 -15.6615,11.6918 -32.7998,23.0082 -51.85,27.3749 -10.505,2.408 -22.9165,4.1443 -32.3126,-1.1349 -17.0874,-9.6006 -33.8072,-29.5716 -32.327,-49.1155 z m 83.7204,-17.7854 c 6.6164,-3.8726 10.8862,-15.3675 6.9259,-21.9317 -4.9507,-8.2057 -20.1005,-10.1021 -28.29,-5.1246 -6.3282,3.8462 -10.3128,14.8493 -6.5512,21.2281 4.8286,8.188 19.7115,10.6299 27.9153,5.8282 z"
                   style="fill:#e9afc6;fill-opacity:1;stroke:none;stroke-width:0.44468766" />
                <path
                   inkscape:connector-curvature="0"
                   id="path4035"
                   d="m 1810.0233,1497.1605 59.9238,-19.9746 c 0,0 8.7309,17.7358 10.513,27.3337 3.1348,16.8826 -2.9792,34.6027 0,51.5135 2.135,12.1184 10.4806,22.5743 12.6155,34.6927 2.3105,13.1145 0,39.9493 0,39.9493 l -58.8725,4.2052 c 0,0 -1.4572,-5.4123 -2.1857,-8.1185 -1.7245,-6.405 -3.5596,-12.7813 -5.1734,-19.2152 -3.7637,-15.0059 -9.6696,-29.7581 -10.5129,-45.2058 -0.4809,-8.8105 3.8881,-17.4893 3.1538,-26.2823 -0.5167,-6.1882 -3.77,-11.8429 -5.2564,-17.8721 -1.711,-6.9396 -4.2052,-21.0259 -4.2052,-21.0259 z"
                   style="fill:#ff0066;stroke:#ff0066;stroke-width:8.83088493;stroke-linecap:butt;stroke-linejoin:miter;stroke-miterlimit:4;stroke-dasharray:none;stroke-opacity:1"
                   sodipodi:nodetypes="ccaaaccaaaaac" />
                <path
                   sodipodi:nodetypes="cacacc"
                   inkscape:connector-curvature="0"
                   id="path4037"
                   d="m 1809.7333,1487.9744 c 0,0 0.039,-28.6885 2.3779,-42.7766 1.7029,-10.2589 8.425,-30.0385 8.425,-30.0385 0,0 18.7647,20.1935 27.4352,30.8941 6.1135,7.5449 17.2993,23.4399 17.2993,23.4399 z"
                   style="opacity:0.51999996;fill:#c87137;stroke:#c87137;stroke-width:8.83088493;stroke-linecap:butt;stroke-linejoin:miter;stroke-miterlimit:4;stroke-dasharray:none;stroke-opacity:1" />
                <path
                   style="fill:#ff0066;stroke:#ff0066;stroke-width:2.71272063;stroke-linecap:butt;stroke-linejoin:miter;stroke-miterlimit:4;stroke-dasharray:none;stroke-opacity:1"
                   d="m 1812.1371,1434.1525 4.1224,-15.9787 2.9412,-9.3979 8.6633,10.712 6.4188,7.4252 z"
                   id="path4039"
                   inkscape:connector-curvature="0"
                   sodipodi:nodetypes="cccccc" />
                <path
                   style="fill:#ffcc00;fill-opacity:1;stroke:none;stroke-width:0.26085484"
                   d="M 339.95508 71.234375 C 336.76522 71.195223 333.62018 71.504694 330.58984 72.435547 C 320.44263 75.552494 310.69059 82.210698 304.69531 90.970703 C 298.23958 100.40355 296.74064 112.77242 296.18555 124.18945 C 295.14997 145.4869 294.0986 169.69382 305.97266 187.4043 C 312.30616 196.85085 324.90647 209.9147 335.18164 205.03906 C 348.81261 198.57104 325.84579 147.53511 341.56641 160.22852 C 349.576 166.69577 350.71983 191.39569 362.86133 200.53125 C 375.91582 210.35371 394.77652 213.48443 410.84375 210.52734 C 420.22703 208.80044 429.72355 203.07813 434.94922 195.0957 C 440.62424 186.42674 439.9867 174.75868 439.83594 164.39844 C 439.65351 151.86277 438.13152 138.81159 432.8457 127.44336 C 428.18724 117.42435 419.99874 109.27131 411.91211 101.74219 C 404.19312 94.555308 395.1939 88.761469 386.01758 83.5625 C 381.49375 80.999526 376.6737 78.940338 371.76758 77.21875 C 366.62243 75.413331 361.34225 73.838627 355.94336 73.074219 C 350.71205 72.333493 345.2715 71.299628 339.95508 71.234375 z M 375.80273 156.47266 C 382.88794 156.47131 388.64647 161.5094 390.04492 167.21875 C 391.25171 172.14555 385.8522 177.52798 381.23438 179.62695 C 376.18281 181.92307 367.77134 182.56553 364.67188 177.96289 C 360.66894 172.01854 363.15526 158.15818 370.72266 157.33203 C 372.46185 156.74128 374.16769 156.47297 375.80273 156.47266 z "
                   transform="matrix(1.6926818,0,0,1.6926818,1034.4964,1279.2728)"
                   id="path4003" />
                <path
                   style="fill:#00aa44;stroke:#00aa44;stroke-width:0.59363639px;stroke-linecap:butt;stroke-linejoin:miter;stroke-opacity:1"
                   d="m 1659.8968,1447.2273 c 5.0259,-7.403 19.6807,-10.6408 26.8435,0.07 11.9887,11.4556 15.8253,21.7307 9.1407,29.6026 -5.5576,6.5447 -18.7531,1.7771 -25.5177,-3.5108 -7.4,-5.7845 -15.7422,-18.3909 -10.4665,-26.1619 z"
                   id="path4164"
                   inkscape:connector-curvature="0"
                   sodipodi:nodetypes="acaaa"
                   inkscape:transform-center-y="25.067249" />
                <path
                   sodipodi:nodetypes="acaaa"
                   inkscape:connector-curvature="0"
                   id="path4166"
                   d="m 1589.3437,1441.9195 c -0.1595,-8.9465 9.9503,-20.0387 21.977,-15.4141 16.3996,2.4518 25.457,8.6374 24.5313,18.9231 -0.7696,8.5514 -14.3009,12.2606 -22.8765,11.8381 -9.3813,-0.4621 -23.4643,-5.956 -23.6318,-15.3471 z"
                   style="fill:#ff6600;stroke:#ff6600;stroke-width:0.59363639px;stroke-linecap:butt;stroke-linejoin:miter;stroke-opacity:1"
                   inkscape:transform-center-y="-21.173999"
                   inkscape:transform-center-x="7.5744455" />
                <path
                   inkscape:transform-center-y="25.067249"
                   sodipodi:nodetypes="acaaa"
                   inkscape:connector-curvature="0"
                   id="path4179"
                   d="m 1711.1929,1496.2931 c 5.0259,-7.403 19.6807,-10.6408 26.8435,0.07 11.9887,11.4555 15.8253,21.7306 9.1407,29.6025 -5.5576,6.5447 -18.7531,1.7771 -25.5177,-3.5107 -7.4,-5.7846 -15.7422,-18.391 -10.4665,-26.162 z"
                   style="fill:#0055d4;stroke:#2a7fff;stroke-width:0.59363639px;stroke-linecap:butt;stroke-linejoin:miter;stroke-opacity:1" />
                <path
                   style="fill:#ff80e5;stroke:#ff80e5;stroke-width:0.59363639px;stroke-linecap:butt;stroke-linejoin:miter;stroke-opacity:1"
                   d="m 1757.406,1551.3301 c -7.9101,-4.1828 -22.3725,-0.1723 -23.6778,12.6467 -5.219,15.7391 -3.7907,26.6137 5.8042,30.4331 7.9773,3.1754 17.3977,-7.2221 20.8938,-15.0642 3.8245,-8.5787 5.283,-23.6249 -3.0202,-28.0156 z"
                   id="path4181"
                   inkscape:connector-curvature="0"
                   sodipodi:nodetypes="acaaa"
                   inkscape:transform-center-y="23.044238"
                   inkscape:transform-center-x="-12.005254" />
              </g>
            </g>
          </g>
        </g>
      </g>
    </g>
  </g>
</svg>
